<svg version="1" xmlns="http://www.w3.org/2000/svg" width="1365.333" height="1365.333" viewBox="0 0 1024 1024"><path d="M160 1c-24 3.3-41.5 8.6-61.5 18.7-41.7 21.1-71.4 55.2-88.9 102-1.6 4.3-5.1 17.5-6 22.8-.3 1.6-.8 4.1-1.1 5.5-.3 1.4-.8 4.3-1.2 6.5C.2 162.6 0 856.3 1.1 864c.5 3.6 1.1 7.8 1.4 9.5 4.2 27.8 17.5 58 35.8 81.5 5.4 6.9 20.3 22.1 27.7 28.3 19.4 16.2 50.3 31.3 74.5 36.3 1.1.2 5.6 1.2 10 2.1 7.4 1.6 33.8 1.7 358 1.9 302.9.2 351.3.1 359.4-1.2 14.5-2.2 29.4-5.9 36.6-8.9 1.7-.7 4.1-1.6 5.5-2 7-2 34.4-17.3 42.5-23.7 22.5-17.9 40.3-39.3 52-62.5 9.1-18.2 13.5-31.9 18.1-56.8.5-2.2.9-161 1-353 .3-378.3.6-355.6-5-378.9-2.6-10.9-6.7-22.6-11.2-32.1-4.9-10.5-15.5-28.1-19.9-33.1-.5-.6-2.6-3.1-4.4-5.5-5.2-6.5-21.7-22.8-28.6-28-17.9-13.8-44.2-27-62.5-31.5-27.4-6.6.6-6.2-380.5-6.2C321.2.3 163 .6 160 1z"/></svg>