<?xml version="1.0" standalone="no"?>
<!DOCTYPE svg PUBLIC "-//W3C//DTD SVG 20010904//EN"
 "http://www.w3.org/TR/2001/REC-SVG-20010904/DTD/svg10.dtd">
<svg version="1.0" xmlns="http://www.w3.org/2000/svg"
 width="1024.000000pt" height="1024.000000pt" viewBox="0 0 1024.000000 1024.000000"
 preserveAspectRatio="xMidYMid meet">
<metadata>
Created by potrace 1.11, written by Peter Selinger 2001-2013
</metadata>
<g transform="translate(0.000000,1024.000000) scale(0.100000,-0.100000)"
fill="#000000" stroke="none">
<path d="M1600 10230 c-240 -33 -415 -86 -615 -187 -417 -211 -714 -552 -889
-1020 -16 -43 -51 -175 -60 -228 -3 -16 -8 -41 -11 -55 -3 -14 -8 -43 -12 -65
-11 -61 -13 -6998 -2 -7075 5 -36 11 -78 14 -95 42 -278 175 -580 358 -815 54
-69 203 -221 277 -283 194 -162 503 -313 745 -363 11 -2 56 -12 100 -21 74
-16 338 -17 3580 -19 3029 -2 3513 -1 3594 12 145 22 294 59 366 89 17 7 41
16 55 20 70 20 344 173 425 237 225 179 403 393 520 625 91 182 135 319 181
568 5 22 9 1610 10 3530 3 3783 6 3556 -50 3789 -26 109 -67 226 -112 321 -49
105 -155 281 -199 331 -5 6 -26 31 -44 55 -52 65 -217 228 -286 280 -179 138
-442 270 -625 315 -274 66 6 62 -3805 62 -1903 -1 -3485 -4 -3515 -8z"/>
</g>
</svg>
